# xmcd
#
# Track frame offsets: 
#        182
#        12175
#        22877
#        37652
#        52580
#        64942
#        76562
#        90687
#        103907
#        115140
#        127762
#        139517
#        152747
#        166320
#        176165
#        189610
#        202150
#        214467
#        225012
#        239275
#
# Disc length: 3368 seconds
#
# Revision: 2
# Processed by: cddbd v1.5.2PL0 Copyright (c) Steve Scherf et al.
# Submitted via: ExactAudioCopy v1.0b3
#
DISCID=f40d2614
DTITLE=Muddy Waters - Baby Please Don't Go
DYEAR=1994
DGENRE=Blues
TTITLE0=The Stuff You Gotta Watch
TTITLE1=She's All Right
TTITLE2=Baby Please Don't Go
TTITLE3=Jodine In My CFoffe
TTITLE4=So Glad I'm Livin'
TTITLE5=Sittin' Here Drinkin'
TTITLE6=One More File
TTITLE7=Close To You
TTITLE8=I Can't Her Sugar
TTITLE9=Trainfair Blues
TTITLE10=You Gonna Miss Me
TTITLE11=You Can't Loose What You Ain't Never Had
TTITLE12=I Got A Rich Man's Woman
TTITLE13=Mean Red Spider
TTITLE14=Sad Letter
TTITLE15=Mean Mistreater
TTITLE16=I Can't Be Satisfied
TTITLE17=Diamonds At Your Feet
TTITLE18=Rollin' Stone
TTITLE19=You Gonna Need My Help
EXTD=
EXTT0=
EXTT1=
EXTT2=
EXTT3=
EXTT4=
EXTT5=
EXTT6=
EXTT7=
EXTT8=
EXTT9=
EXTT10=
EXTT11=
EXTT12=
EXTT13=
EXTT14=
EXTT15=
EXTT16=
EXTT17=
EXTT18=
EXTT19=
PLAYORDER=
